<svg width="36" height="36" viewBox="0 0 36 36" fill="none" xmlns="http://www.w3.org/2000/svg">
<path d="M0 10C0 4.47715 4.47715 0 10 0H26C31.5228 0 36 4.47715 36 10V26C36 31.5228 31.5228 36 26 36H10C4.47715 36 0 31.5228 0 26V10Z" fill="#2C2C2C"/>
<g clip-path="url(#clip0_47_22023)">
<path d="M20.1134 26.0716C20.145 26.1505 20.2001 26.2179 20.2711 26.2646C20.3421 26.3113 20.4258 26.3352 20.5107 26.333C20.5957 26.3308 20.678 26.3027 20.7466 26.2524C20.8151 26.2021 20.8666 26.1321 20.8942 26.0516L26.3109 10.2183C26.3375 10.1445 26.3426 10.0646 26.3255 9.98793C26.3085 9.9113 26.2699 9.84113 26.2144 9.78561C26.1589 9.7301 26.0887 9.69154 26.0121 9.67446C25.9355 9.65737 25.8555 9.66246 25.7817 9.68913L9.94837 15.1058C9.86795 15.1334 9.7979 15.1849 9.7476 15.2534C9.69731 15.322 9.66918 15.4043 9.66701 15.4893C9.66483 15.5743 9.6887 15.6579 9.73542 15.7289C9.78214 15.7999 9.84947 15.855 9.92837 15.8866L16.5367 18.5366C16.7456 18.6203 16.9354 18.7453 17.0947 18.9043C17.2539 19.0633 17.3794 19.2529 17.4634 19.4616L20.1134 26.0716Z" stroke="white" stroke-width="1.66667" stroke-linecap="round" stroke-linejoin="round"/>
<path d="M26.2116 9.78906L17.095 18.9049" stroke="white" stroke-width="1.66667" stroke-linecap="round" stroke-linejoin="round"/>
</g>
<defs>
<clipPath id="clip0_47_22023">
<rect width="20" height="20" fill="white" transform="translate(8 8)"/>
</clipPath>
</defs>
</svg>
