<svg width="36" height="36" viewBox="0 0 36 36" fill="none" xmlns="http://www.w3.org/2000/svg">
<path d="M18 10.5H12.1667C11.7246 10.5 11.3007 10.6756 10.9882 10.9882C10.6756 11.3007 10.5 11.7246 10.5 12.1667V23.8333C10.5 24.2754 10.6756 24.6993 10.9882 25.0118C11.3007 25.3244 11.7246 25.5 12.1667 25.5H23.8333C24.2754 25.5 24.6993 25.3244 25.0118 25.0118C25.3244 24.6993 25.5 24.2754 25.5 23.8333V18" stroke="#1A1A1A" stroke-width="1.66667" stroke-linecap="round" stroke-linejoin="round"/>
<path d="M23.3125 10.1877C23.644 9.85617 24.0937 9.66992 24.5625 9.66992C25.0313 9.66992 25.481 9.85617 25.8125 10.1877C26.144 10.5192 26.3303 10.9688 26.3303 11.4377C26.3303 11.9065 26.144 12.3562 25.8125 12.6877L18.3017 20.1994C18.1038 20.3971 17.8593 20.5418 17.5908 20.6202L15.1967 21.3202C15.125 21.3411 15.0489 21.3424 14.9766 21.3238C14.9042 21.3053 14.8382 21.2676 14.7854 21.2148C14.7326 21.162 14.6949 21.096 14.6764 21.0236C14.6578 20.9512 14.6591 20.8752 14.68 20.8035L15.38 18.4094C15.4588 18.1411 15.6038 17.8969 15.8017 17.6994L23.3125 10.1877Z" stroke="#1A1A1A" stroke-width="1.66667" stroke-linecap="round" stroke-linejoin="round"/>
</svg>
