<svg width="36" height="36" viewBox="0 0 36 36" fill="none" xmlns="http://www.w3.org/2000/svg">
<path d="M23 14.6665C24.3807 14.6665 25.5 13.5472 25.5 12.1665C25.5 10.7858 24.3807 9.6665 23 9.6665C21.6193 9.6665 20.5 10.7858 20.5 12.1665C20.5 13.5472 21.6193 14.6665 23 14.6665Z" stroke="#1A1A1A" stroke-width="1.66667" stroke-linecap="round" stroke-linejoin="round"/>
<path d="M13 20.5C14.3807 20.5 15.5 19.3807 15.5 18C15.5 16.6193 14.3807 15.5 13 15.5C11.6193 15.5 10.5 16.6193 10.5 18C10.5 19.3807 11.6193 20.5 13 20.5Z" stroke="#1A1A1A" stroke-width="1.66667" stroke-linecap="round" stroke-linejoin="round"/>
<path d="M23 26.3335C24.3807 26.3335 25.5 25.2142 25.5 23.8335C25.5 22.4528 24.3807 21.3335 23 21.3335C21.6193 21.3335 20.5 22.4528 20.5 23.8335C20.5 25.2142 21.6193 26.3335 23 26.3335Z" stroke="#1A1A1A" stroke-width="1.66667" stroke-linecap="round" stroke-linejoin="round"/>
<path d="M15.1583 19.2583L20.85 22.575" stroke="#1A1A1A" stroke-width="1.66667" stroke-linecap="round" stroke-linejoin="round"/>
<path d="M20.8417 13.4248L15.1583 16.7415" stroke="#1A1A1A" stroke-width="1.66667" stroke-linecap="round" stroke-linejoin="round"/>
</svg>
